The Avengers Earths Mightiest Heroes S02E06 720p WEB-DL X264


Plot Summary:-
After 74 villains break out of prison, Marvel's most powerful superheroes team up to capture all of them, and also to defend the Earth from widespread threats.

IMDB:-  
http://www.imdb.com/title/tt1626038/

Screenshots:-  
http://bayimg.com/cAobHAaDJ 
http://bayimg.com/cAobKaADJ


Details:-
Video
ID                                       : 1
Format                                   : AVC
Format/Info                              : Advanced Video Codec
Format profile                           : High@L4.0
Format settings, CABAC                   : Yes
Format settings, ReFrames                : 8 frames
Codec ID                                 : V_MPEG4/ISO/AVC
Duration                                 : 22mn 36s
Bit rate                                 : 500 Kbps
Width                                    : 1 280 pixels
Height                                   : 720 pixels
Display aspect ratio                     : 16:9
Frame rate mode                          : Variable
Frame rate                               : 23.976 fps
Color space                              : YUV
Chroma subsampling                       : 4:2:0
Bit depth                                : 8 bits
Scan type                                : Progressive
Bits/(Pixel*Frame)                       : 0.023
Stream size                              : 79.6 MiB (82%)
Writing library                          : x264 core 115
Language                                 : English
Default                                  : Yes
Forced                                   : No
Color primaries                          : BT.709-5, BT.1361, IEC 61966-2-4, SMPTE RP177
Transfer characteristics                 : BT.709-5, BT.1361
Matrix coefficients                      : BT.709-5, BT.1361, IEC 61966-2-4 709, SMPTE RP177

Audio
ID                                       : 2
Format                                   : Vorbis
Format settings, Floor                   : 1
Codec ID                                 : A_VORBIS
Duration                                 : 22mn 36s
Bit rate mode                            : Variable
Bit rate                                 : 48.0 Kbps
Channel(s)                               : 2 channels
Sampling rate                            : 48.0 KHz
Compression mode                         : Lossy
Stream size                              : 7.76 MiB (8%)
Writing library                          : aoTuV Beta 5 (UTC 2006-10-24)
Language                                 : English
Default                                  : Yes
Forced                                   : No
Writing application                      : HandBrake




Hope this torrent helps you out!!Enjoy!!